<svg version="1.0"
   viewBox="10 10 77.4 77.4"
   xmlns="http://www.w3.org/2000/svg"
>
   <!-- width="77.4" height="77.4" -->

<path style="fill:#000;fill-rule:evenodd;fill-opacity:1;stroke:none" d="M75.333 45.733h-.066v.2l-.067.267-.133.2-.134.267-.266.133-.2.133L74.2 47H74v.067l-.533-.134-.4-.266-.334-.467-.066-.467.066-.533.334-.4.4-.333L74 44.4l.467.067.466.333.267.4.133.533zM75.667 32.533H75.6v.2l-.067.267-.133.2-.133.267L75 33.6l-.2.133-.267.067h-.2v.067l-.533-.134-.4-.266-.333-.467-.067-.467.067-.533.333-.4.4-.333.533-.067.467.067.467.333.266.4.134.533zM71 20.267h-.067v.2l-.066.266-.134.2-.133.267-.267.133-.2.134-.266.066h-.2v.067l-.534-.133-.4-.267-.333-.467-.067-.466.067-.534.333-.4.4-.333.534-.067.466.067.467.333.267.4.133.534zM62.133 10.2h-.066v.2l-.067.267-.133.2-.134.266-.266.134-.2.133-.267.067h-.2v.066l-.533-.133-.4-.267-.334-.466-.066-.467.066-.533.334-.4.4-.334.533-.066.467.066.466.334.267.4.133.533zM50.333 4.267h-.066v.2l-.067.266-.133.2-.134.267-.266.133-.2.134-.267.066H49V5.6l-.533-.133-.4-.267-.334-.467-.066-.466.066-.534.334-.4.4-.333.533-.067.467.067.466.333.267.4.133.534zM37.067 2.933H37v.2l-.067.267-.133.2-.133.267L36.4 4l-.2.133-.267.067h-.2v.067l-.533-.134-.4-.266-.333-.467-.067-.467.067-.533.333-.4.4-.333.533-.067.467.067.467.333.266.4.134.533zM24.333 6.533h-.066v.2L24.2 7l-.133.2-.134.267-.266.133-.2.133-.267.067H23v.067l-.533-.134-.4-.266L21.733 7l-.066-.467.066-.533.334-.4.4-.333L23 5.2l.467.067.466.333.267.4.133.533zM13.733 14.467h-.066v.2l-.067.266-.133.2-.134.267-.266.133-.2.134-.267.066h-.2v.067l-.533-.133-.4-.267-.334-.467-.066-.466.066-.534.334-.4.4-.333.533-.067.467.067.466.333.267.4.133.534zM6.733 25.733h-.066v.2L6.6 26.2l-.133.2-.134.267-.266.133-.2.133L5.6 27h-.2v.067l-.533-.134-.4-.266-.334-.467-.066-.467.066-.533.334-.4.4-.333.533-.067.467.067.466.333.267.4.133.533zM4.333 38.8h-.066v.2l-.067.267-.133.2-.134.266-.266.134-.2.133-.267.067H3v.066L2.467 40l-.4-.267-.334-.466-.066-.467.066-.533.334-.4.4-.334.533-.066.467.066.466.334.267.4.133.533zM6.8 51.8h-.067v.2l-.066.267-.134.2-.133.266-.267.134-.2.133-.266.067h-.2v.066L4.933 53l-.4-.267-.333-.466-.067-.467.067-.533.333-.4.4-.334.534-.066.466.066.467.334.267.4.133.533zM13.6 62.8h-.067v.2l-.066.267-.134.2-.133.266-.267.134-.2.133-.266.067h-.2v.066L11.733 64l-.4-.267-.333-.466-.067-.467.067-.533.333-.4.4-.334.534-.066.466.066.467.334.267.4.133.533zM24 70.867h-.067v.2l-.066.266-.134.2-.133.267-.267.133-.2.134-.266.066h-.2v.067l-.534-.133-.4-.267-.333-.467-.067-.466.067-.534.333-.4.4-.333.534-.067.466.067.467.333.267.4.133.534zM36.933 74.533h-.066v.2L36.8 75l-.133.2-.134.267-.266.133-.2.133-.267.067h-.2v.067l-.533-.134-.4-.266-.334-.467-.066-.467.066-.533.334-.4.4-.333.533-.067.467.067.466.333.267.4.133.533zM50.133 73.4h-.066v.2l-.067.267-.133.2-.134.266-.266.134-.2.133-.267.067h-.2v.066l-.533-.133-.4-.267-.334-.466-.066-.467.066-.533.334-.4.4-.334.533-.066.467.066.466.334.267.4.133.533zM62.133 67.133h-.066v.2L62 67.6l-.133.2-.134.267-.266.133-.2.133L61 68.4h-.2v.067l-.533-.134-.4-.266-.334-.467-.066-.467.066-.533.334-.4.4-.333.533-.067.467.067.466.333.267.4.133.533zM71 57.333h-.067v.2l-.066.267-.134.2-.133.267-.267.133-.2.133-.266.067h-.2v.067l-.534-.134-.4-.266-.333-.467-.067-.467.067-.533.333-.4.4-.333.534-.067.466.067.467.333.267.4.133.533zM77.333 38.667h-.066v.466l-.134.534-.266.4-.134.066-.066.134-.134.266-.266.134-.134.066-.066.134-.4.266-.534.134h-.466v.066l-.6-.066-.467-.134-.467-.266-.4-.334-.4-.466-.2-.4-.133-.534v-1.066l.133-.467.6-.867.867-.6.467-.133h1.066l.534.133.4.2.466.4.334.4.266.467.134.467.066.6zM75 25.667h-.067v.466l-.133.534-.267.4-.133.066-.067.134-.133.266-.267.134-.133.066-.067.134-.4.266-.533.134h-.467v.066l-.6-.066-.466-.134-.467-.266-.4-.334-.4-.466-.2-.4-.133-.534v-1.066l.133-.467.6-.867.867-.6.466-.133H72.8l.533.133.4.2.467.4.333.4.267.467.133.467.067.6zM68 14.467h-.067v.466l-.133.534-.267.4-.133.066-.067.134-.133.266-.267.134-.133.066-.067.134-.4.266-.533.134h-.467v.066l-.6-.066-.466-.134-.467-.266-.4-.334-.4-.466-.2-.4-.133-.534v-1.066l.133-.467.6-.867.867-.6.466-.133H65.8l.533.133.4.2.467.4.333.4.267.467.133.467.067.6zM57.333 6.333h-.066V6.8l-.134.533-.266.4-.134.067-.066.133-.134.267-.266.133-.134.067-.066.133-.4.267-.534.133h-.466V9l-.6-.067L53.6 8.8l-.467-.267-.4-.333-.4-.467-.2-.4L52 6.8V5.733l.133-.466.6-.867.867-.6.467-.133h1.066l.534.133.4.2.466.4.334.4.266.467.134.466.066.6zM44.733 2.8h-.066v.467l-.134.533-.266.4-.134.067-.066.133-.134.267-.266.133-.134.067-.066.133-.4.267-.534.133h-.466v.067l-.6-.067L41 5.267 40.533 5l-.4-.333-.4-.467-.2-.4-.133-.533V2.2l.133-.467.6-.866.867-.6.467-.134h1.066l.534.134.4.2.466.4.334.4.266.466.134.467.066.6zM31.467 3.933H31.4V4.4l-.133.533-.267.4-.133.067-.067.133-.133.267-.267.133-.133.067-.067.133-.4.267-.533.133H28.8V6.6l-.6-.067-.467-.133-.466-.267-.4-.333-.4-.467-.2-.4-.134-.533V3.333l.134-.466.6-.867.866-.6.467-.133h1.067l.533.133.4.2.467.4.333.4.267.467.133.466.067.6zM19.467 10H19.4v.467l-.133.533-.267.4-.133.067-.067.133-.133.267L18.4 12l-.133.067-.067.133-.4.267-.533.133H16.8v.067l-.6-.067-.467-.133-.466-.267-.4-.333-.4-.467-.2-.4-.134-.533V9.4l.134-.467.6-.866.866-.6.467-.134h1.067l.533.134.4.2.467.4.333.4.267.466.133.467.067.6zM10.667 19.667H10.6v.466l-.133.534-.267.4-.133.066-.067.134-.133.266-.267.134-.133.066-.067.134-.4.266-.533.134H8v.066l-.6-.066-.467-.134-.466-.266-.4-.334-.4-.466-.2-.4-.134-.534v-1.066l.134-.467.6-.867.866-.6L7.4 17h1.067l.533.133.4.2.467.4.333.4.267.467.133.467.067.6zM5.867 32.133H5.8v.467l-.133.533-.267.4-.133.067-.067.133-.133.267-.267.133-.133.067-.067.133-.4.267-.533.133H3.2v.067l-.6-.067-.467-.133-.466-.267-.4-.333-.4-.467-.2-.4-.134-.533v-1.067l.134-.466.6-.867.866-.6.467-.133h1.067l.533.133.4.2.467.4.333.4.267.467.133.466.067.6zM5.867 45.2H5.8v.467l-.133.533-.267.4-.133.067-.067.133-.133.267-.267.133-.133.067-.067.133-.4.267-.533.133H3.2v.067l-.6-.067-.467-.133-.466-.267-.4-.333-.4-.467-.2-.4-.134-.533V44.6l.134-.467.6-.866.866-.6.467-.134h1.067l.533.134.4.2.467.4.333.4.267.466.133.467.067.6zM10.6 57.6h-.067v.467l-.133.533-.267.4-.133.067-.067.133-.133.267-.267.133-.133.067-.067.133-.4.267-.533.133h-.467v.067l-.6-.067-.466-.133L6.4 59.8l-.4-.333L5.6 59l-.2-.4-.133-.533V57l.133-.467.6-.866.867-.6.466-.134H8.4l.533.134.4.2.467.4.333.4.267.466.133.467.067.6zM19.6 67.467h-.067v.466l-.133.534-.267.4-.133.066-.067.134-.133.266-.267.134-.133.066-.067.134-.4.266-.533.134h-.467v.066l-.6-.066-.466-.134-.467-.266-.4-.334-.4-.466-.2-.4-.133-.534v-1.066l.133-.467.6-.867.867-.6.466-.133H17.4l.533.133.4.2.467.4.333.4.267.467.133.467.067.6zM31.4 73.4h-.067v.467l-.133.533-.267.4-.133.067-.067.133-.133.267-.267.133-.133.067-.067.133-.4.267L29.2 76h-.467v.067l-.6-.067-.466-.133-.467-.267-.4-.333-.4-.467-.2-.4-.133-.533V72.8l.133-.467.6-.866.867-.6.466-.134H29.2l.533.134.4.2.467.4.333.4.267.466.133.467.067.6zM44.733 74.533h-.066V75l-.134.533-.266.4-.134.067-.066.133-.134.267-.266.133-.134.067-.066.133-.4.267-.534.133h-.466v.067l-.6-.067L41 77l-.467-.267-.4-.333-.4-.467-.2-.4L39.4 75v-1.067l.133-.466.6-.867L41 72l.467-.133h1.066l.534.133.4.2.466.4.334.4.266.467.134.466.066.6zM57.467 71H57.4v.467l-.133.533-.267.4-.133.067-.067.133-.133.267L56.4 73l-.133.067-.067.133-.4.267-.533.133H54.8v.067l-.6-.067-.467-.133-.466-.267-.4-.333-.4-.467-.2-.4-.134-.533V70.4l.134-.467.6-.866.866-.6.467-.134h1.067l.533.134.4.2.467.4.333.4.267.466.133.467.067.6zM68.067 62.8H68v.467l-.133.533-.267.4-.133.067-.067.133-.133.267L67 64.8l-.133.067L66.8 65l-.4.267-.533.133H65.4v.067l-.6-.067-.467-.133-.466-.267-.4-.333-.4-.467-.2-.4-.134-.533V62.2l.134-.467.6-.866.866-.6.467-.134h1.067l.533.134.4.2.467.4.333.4.267.466.133.467.067.6zM75.067 51.667H75v.466l-.133.534-.267.4-.133.066-.067.134-.133.266-.267.134-.133.066-.067.134-.4.266-.533.134H72.4v.066l-.6-.066-.467-.134-.466-.266-.4-.334-.4-.466-.2-.4-.134-.534v-1.066l.134-.467.6-.867.866-.6L71.8 49h1.067l.533.133.4.2.467.4.333.4.267.467.133.467.067.6z"/></svg>