<svg xmlns="http://www.w3.org/2000/svg" version="1.0" viewBox="273.32 240.87 400.1 400.02">
    <path d="m512.533 365.6-5.466-2.6-5.334-2.2-5.466-1.8-2.734-.733-2.666-.6-5.334-1.067-2.666-.4-2.6-.2-5.334-.267-5.333.134-5.467.4-5.333.866-5.467 1.2-2.733.734-2.667.866-.066.067h-.067l-.267.067-3.2 1-3.066 1.133-3 1.2-2.867 1.4-2.867 1.4-2.733 1.533-2.667 1.6-2.533 1.8-.333.267-.334.2-2.466 1.8-3.534 2.8-1.733 1.467-1.6 1.6-1.667 1.533-1.533 1.667-3 3.466-2.867 3.6-1.4 1.867-1.266 2-2.467 4.067-1.2 2.066-1.067 2.2-2.2 4.267-1.866 4.4-1.6 4.4-1.334 4.467-1.133 4.4-.8 4.533-.533 4.533-.267 4.6-.133 4.667.266 4.733.534 4.8.866 4.867 7.4-2.533 7.667-2.4 7.8-2.534 7.933-2.4-.2-2.2V442.2l.134-2.133.333-2.134.467-2.133.6-2.067.733-2.133 1-2 .667-1.467.8-1.333 1.666-2.533 1.867-2.334 1-1.066 1.133-.934 1.067-1 1.2-.866 2.533-1.534L437 415.8l1.4-.6 2.933-1 2.934-.867 2.933-.533 2.933-.267 2.934.134 1.4.066 1.466.267 2.934.733 1.4.4 1.466.6 2.934 1.4 2.2 1.267 2.133 1.4 1.933 1.533 1.8 1.667 1.6 1.8 1.534 1.933 1.266 2.067.6 1.067.667 1.2.267-.067 8.733-2.4 9-2.333 9-2.4 9.267-2.267 9.266-2.4 9.534-2.267 9.666-2.333 9.8-2.267-1-2.466-.933-2.334-1.067-2.333-1.066-2.2-2.334-4.333-1.266-2.134-1.267-2-1.4-2.066-1.4-1.934-3-3.8-1.667-1.866-1.6-1.734-1.733-1.733-1.733-1.6-2.134-1.933-2.2-1.8-4.533-3.4-2.467-1.667-2.466-1.533-2.534-1.467-2.6-1.4zm-16.4 31.4h.067l.267.133-.334-.133z" style="fill:#006;fill-rule:evenodd;fill-opacity:1;stroke:none"/>
    <path d="m478.667 430-.267.067.6 1.333-.333-1.4z" style="fill:#036;fill-rule:evenodd;fill-opacity:1;stroke:none"/>
    <path d="m593.2 321-69.133 40.467 2 1.333 2.066 1.467 4 3.133 3.867 3.333 3.8 3.667 3.6 3.733 3.4 3.934 3.067 3.933 2.933 4.2 40.4-69.2z" style="fill:#006;fill-rule:evenodd;fill-opacity:1;stroke:none"/>
    <path d="M557.333 427.533 556.4 423l-10.133 2.267-9.8 2.4L526.8 430l-9.4 2.4-9.267 2.267-9 2.333-8.866 2.267-8.534 2.4.067 2v2.133l-.133 1-.067 1.067-.267 2.133-.533 2-.6 2.133-.733 2-.867 2.134-.8 1.333-.8 1.4-.267.267-.133.133-.067.2-.4.667-.8 1.266-.533.534-.267.266-.133.134-.067.2-.933 1.133-1.067 1-1 1.067-1.2.866-1.133.934-1.267.8-1.2.8-1.333.666-1.333.667-.734.267-.666.333-.734.267-.666.333-1.6.4-1.467.333-2.933.534-1.467.133-1.467.067h-1.466l-1.4-.067-1.467-.2-1.467-.267-2.866-.666L440.6 473l-1.467-.6-1.333-.667-2.333-1.266-2.067-1.4-1.933-1.534-.934-.866-.8-.8-1.666-1.8-.8-1-.667-.934-.733-1.066-.6-1-1.134-2.134-.8-1.6.4 1.734-8.133 2.4-7.8 2.533-7.6 2.4-7.2 2.533.8 2.267.2.4 1.667 4.4.933 2.133 1.067 2.2.333.667 1.133 2.267 1.267 2.266 1.333 2.2 1.467 2.2 3 4.2 1.6 2 1.733 2 1.2 1.334 1.334 1.4 2.733 2.666 2.867 2.534 1.466 1.2 1.6 1.266 3.134 2.334 1.6 1.066 1.733 1.134 3.4 2.066 3.667 2.067 3.6 1.733 3.733 1.667 3.733 1.4 3.734 1.267 3.733 1 3.733.933 3.8.667 3.867.6 4.2.333 4.267.133 4.266-.133 4.4-.333 4.334-.6 4.4-.8 4.4-1.067 4.466-1.2.134-.067 3.6-1.266 3.533-1.334 1.667-.8 1.733-.733 3.333-1.533 3.2-1.8 1.534-.934 1.6-.866 3-2 2.933-2.067 1.733-1.467 1.734-1.466.8-.8.4-.4.2-.2.266-.134 1.734-1.466.133-.267.2-.2.4-.4.8-.8 1.6-1.6 1.533-1.733.134-.267.2-.2.4-.4.8-.8 1.4-1.867.666-.933.134-.267.2-.2.4-.4 1.333-1.933 1.4-1.867 1.2-2.066 1.267-2 1.2-2.134 1.2-2.066 2.066-4.4 1.867-4.4 1.6-4.4 1.4-4.4 1.067-4.534.866-4.4.534-4.533.4-4.4v-4.267l-.2-4.266-.4-4.267-.534-4.267z" style="fill:#036;fill-rule:evenodd;fill-opacity:1;stroke:none"/>
    <path d="M451.133 422.733H449l-1.933.267-1.934.467-1.8.733-1.8.8-1.6 1.067-1.6 1.266-1.466 1.467-1.4 1.467-1.2 1.666-1 1.667-.8 1.867-.667 1.866-.467 2-.266 2-.067 2.2.067 2.067.266 2 .467 1.933.667 1.867.8 1.733 1 1.734.533.8.667.866 1.4 1.6 1.466 1.334 1.6 1.266 1.6 1 1.8.934 1.8.6 1.934.533 1.933.267 2.133.133 2-.133.934-.134 1-.133 1.866-.533 1.867-.6.8-.467.4-.267.2-.133.267-.067.8-.533.4-.267.2-.133.266-.067 1.6-1.266.734-.667.8-.667 1.333-1.6.267-.466.333-.4.6-.8 1-1.734.867-1.733.6-1.867.066-.533.134-.467.266-.933.267-2 .067-1.067v-.933l.066-.067-.133-2.2-.267-2-.466-2-.6-1.866-.867-1.867-1-1.667-1.2-1.666-1.333-1.467-.8-.8-.734-.667-1.6-1.266-.866-.6-.8-.467-.867-.467-.8-.333-1.867-.733-1.866-.467-1-.2-.934-.067h-2zm-9.4 11.134.867-1 1-.867 1-.733 1.067-.467 1.066-.467 1.2-.333 2.467-.2h1.133l1.2.2 1.134.333 1.133.467 1 .467 1 .733.933.867 1 1 .8 1 .734 1.066.6 1.134.533 1.2.333 1.2.334 1.333.2 1.333.066 1.467-.066 1.333-.134.667-.066.133V446.333l-.134.267-.066.133v.2l-.134.667-.333 1.333-.533 1.134-.6 1.2-.734 1.066-.8 1.134-.533.4-.267.2-.2.266-.933.867-1 .667-.533.266-.267.134-.133.066-.067.134-1.133.4-.6.133-.534.2-1.2.2h-.6l-.533.067-1.267-.067-1.2-.2-1.2-.333-1.066-.4-1.067-.6-1-.667-1-.867-.867-.866-.866-1.134-.667-1.066-.6-1.2-.467-1.134-.466-1.333-.2-1.267-.2-1.4v-2.8l.2-1.333.2-1.333.466-1.2.467-1.2.6-1.134 1.533-2.066z" style="fill:#036;fill-rule:evenodd;fill-opacity:1;stroke:none"/>
    <path d="m387.067 403 1.8-3.933 2-3.734 2.2-3.733 2.4-3.6 2.533-3.6 2.8-3.4 3-3.4 3.2-3.2 3.2-3.2 3.4-2.933 3.4-2.8 3.533-2.534 3.534-2.4 3.666-2.2 3.734-2 3.866-1.733L273.4 240.867l-.067.066L387.067 403z" style="fill:#006;fill-rule:evenodd;fill-opacity:1;stroke:none"/>
    <path d="m430.267 524.533-3.134-1.8-3.066-1.8-3-1.933-2.934-2.067-2.933-2.266-2.8-2.334-2.733-2.466-2.667-2.6-2.733-2.8-2.467-2.734-2.333-2.866-2.2-2.8-2.134-3-1.933-2.934-1.8-3.066-1.667-3L313.4 600.8l116.867-76.267zM539.8 507.267l-3.333 3.066-1.734 1.467-.266.133-.2.2-.4.4-.8.8-3.467 2.734-3.467 2.6-3.6 2.333-1.866 1.133-.934.534-.466.266-.4.334-3.734 2-1.933.933-1.867.933L673.4 640.867 559.667 478.8l-.934 1.867-.933 1.933-2 3.733-.333.4-.267.467-.533.933-1.134 1.867-2.333 3.6-2.6 3.467-2.733 3.466-.8.8-.4.4-.2.2-.134.267-1.466 1.733-3.067 3.334z" style="fill:#036;fill-rule:evenodd;fill-opacity:1;stroke:none"/>
</svg>